<?xml version="1.0" standalone="no"?>
<!DOCTYPE svg PUBLIC "-//W3C//DTD SVG 20010904//EN"
 "http://www.w3.org/TR/2001/REC-SVG-20010904/DTD/svg10.dtd">
<svg version="1.0" xmlns="http://www.w3.org/2000/svg"
 width="512.000000pt" height="512.000000pt" viewBox="0 0 512.000000 512.000000"
 preserveAspectRatio="xMidYMid meet">

<g transform="translate(0.000000,512.000000) scale(0.100000,-0.100000)"
fill="#000000" stroke="none">
<path d="M1055 5110 c-312 -16 -451 -54 -620 -171 -196 -135 -335 -331 -385
-542 -44 -187 -45 -233 -45 -1842 0 -1613 1 -1642 46 -1835 72 -310 359 -597
669 -669 191 -45 233 -46 1845 -46 1613 0 1642 1 1835 46 310 72 597 359 669
669 45 191 46 233 46 1845 0 1613 -1 1642 -46 1835 -41 178 -166 370 -322 495
-148 119 -300 178 -527 206 -112 14 -2907 21 -3165 9z m1780 -1130 c341 -73
600 -213 846 -459 235 -236 370 -480 438 -794 106 -488 -22 -929 -365 -1257
-247 -237 -556 -360 -903 -360 -155 0 -284 20 -418 65 -365 122 -653 389 -798
739 -41 101 -80 263 -91 379 l-6 77 -346 0 -345 0 6 108 c37 639 447 1193
1057 1427 99 38 218 69 345 90 134 21 448 14 580 -15z"/>
<path d="M2725 2976 c-100 -23 -171 -55 -247 -109 -375 -269 -331 -824 81
-1032 96 -48 179 -67 291 -67 210 1 392 95 506 263 71 105 95 179 101 314 6
130 -8 201 -64 315 -67 137 -215 258 -373 304 -78 23 -221 29 -295 12z"/>
</g>
</svg>
